# xmcd
#
# Track frame offsets: 
#        150
#        25610
#        48503
#        74713
#        86837
#        109187
#        136395
#        147033
#        168556
#        188449
#        200293
#        213330
#
# Disc length: 3041 seconds
#
# Revision: 0
# Processed by: cddbd v1.5.2PL0 Copyright (c) Steve Scherf et al.
# Submitted via: ExactAudioCopy v1.1
#
DISCID=ab0bdf0c
DTITLE=Various Artist - Rhythm and Blues Now!  CD4
DYEAR=2016
DGENRE=Blues
TTITLE0=Outrider - Jail Of Doubts
TTITLE1=Outrider - Run Buddy Run
TTITLE2=Outrider - Good Times
TTITLE3=Zerber - Ich Bin Arzt
TTITLE4=Zerber - Mr. Crowley
TTITLE5=Zerber - Тайна
TTITLE6=Крылья - Travis Walk
TTITLE7=Крылья - Well She's Walking
TTITLE8=Линия Жизни - Завтра
TTITLE9=Линия Жизни - Дрянь
TTITLE10=Ре-Ванш - Моя Леди
TTITLE11=Ре-Ванш - Давай заблудимся
EXTD=
EXTT0=
EXTT1=
EXTT2=
EXTT3=
EXTT4=
EXTT5=
EXTT6=
EXTT7=
EXTT8=
EXTT9=
EXTT10=
EXTT11=
PLAYORDER=
